Coordinates
version=1
nRows=15
nColumns=42
inDegrees=yes

Units are S.I. units (second, meters, Newtons, ...)
If the header above contains a line with 'inDegrees', this indicates whether rotational values are in degrees (yes) or radians (no).

endheader
time	pelvis_tilt	pelvis_list	pelvis_rotation	pelvis_tx	pelvis_ty	pelvis_tz	hip_flexion_r	hip_adduction_r	hip_rotation_r	knee_angle_r	knee_adduction_r	knee_angle_r_beta	ankle_angle_r	subtalar_angle_r	mtp_angle_r	hip_flexion_l	hip_adduction_l	hip_rotation_l	knee_angle_l	knee_adduction_l	knee_angle_l_beta	ankle_angle_l	subtalar_angle_l	mtp_angle_l	lumbar_extension	lumbar_bending	lumbar_rotation	arm_flex_r	arm_add_r	arm_rot_r	elbow_flex_r	pro_sup_r	wrist_flex_r	wrist_dev_r	arm_flex_l	arm_add_l	arm_rot_l	elbow_flex_l	pro_sup_l	wrist_flex_l	wrist_dev_l
      2.66000000	     12.05613905	      3.05345030	      5.31219254	      0.82092250	      0.86780404	      0.16757613	     15.50845062	     -6.50959750	    -32.14812338	     17.00116520	      1.99700599	      0.29672631	      8.46282665	     37.47978630	     -7.50057306	    -29.67407428	      4.44603188	    -10.55983359	     15.23579109	     -5.00889677	      0.26591472	     28.93554304	     34.00542265	     -7.50057306	    -34.84861132	      0.53447209	     -2.57775202	     -3.90899327	    -11.97433256	     -3.46640817	     43.50281235	     90.00000001	      0.00000000	      0.00000000	     26.83693708	    -16.84397884	      7.78569935	     49.87263495	     90.00000001	      0.00000000	      0.00000000
      2.67000000	     12.00453541	      2.85264397	      5.48595602	      0.83552421	      0.86680170	      0.16812921	     15.35947176	     -5.92788879	    -32.42124583	     17.62080274	      1.38396152	      0.30754102	      8.03939163	     37.63523887	     -7.50055944	    -29.68846114	      3.86737858	    -10.80322304	     16.99734233	     -5.23068006	      0.29665959	     27.96290378	     33.99000436	     -7.50055944	    -34.55110983	      0.91230731	     -2.50811397	     -3.99829021	    -12.02460102	     -3.60382755	     43.28816883	     90.00000001	      0.00000000	      0.00000000	     26.62791864	    -16.73945341	      7.64552060	     50.32090383	     90.00000001	      0.00000000	      0.00000000
      2.68000000	     11.81932619	      2.73063676	      5.58011175	      0.85015272	      0.86596285	      0.16831493	     15.39868032	     -5.49549735	    -31.74547134	     18.43224019	      0.87099687	      0.32170328	      7.69268623	     37.47190539	     -7.50055607	    -29.67655057	      3.64643265	    -10.33580087	     18.43893606	     -5.66422151	      0.32182014	     27.33932587	     33.85623967	     -7.50055607	    -34.09627829	      1.24882125	     -2.42743289	     -4.09877028	    -12.19100095	     -3.67204835	     43.12739811	     90.00000001	      0.00000000	      0.00000000	     26.29165029	    -16.54012754	      7.63820743	     50.44587210	     90.00000001	      0.00000000	      0.00000000
      2.69000000	     12.10626864	      2.23509818	      5.72988702	      0.86505422	      0.86593272	      0.16941483	     15.22218698	     -4.67072334	    -32.78487596	     20.09954516	     -0.44779058	      0.35080324	      7.41021186	     37.95483093	     -7.50053808	    -29.68756234	      2.46709177	    -11.15651953	     20.89108927	     -5.61360149	      0.36461829	     24.87177207	     33.66985493	     -7.50053808	    -34.14943345	      1.89530063	     -2.22259923	     -4.00927678	    -12.25689757	     -3.72940524	     42.86788159	     90.00000001	      0.00000000	      0.00000000	     25.83242178	    -16.41288841	      7.17337637	     51.12221449	     90.00000001	      0.00000000	      0.00000000
      2.70000000	     12.27638404	      1.89827505	      5.72213782	      0.87988370	      0.86610037	      0.17028804	     15.15089755	     -4.10071232	    -32.39762126	     21.84261280	     -1.30566374	      0.38122551	      7.31957182	     37.81567635	     -7.50053346	    -29.67194793	      1.76427637	    -11.29450082	     23.01564919	     -5.80102456	      0.40169886	     23.00841746	     33.40277392	     -7.50053346	    -34.09609479	      2.37042015	     -1.92932913	     -3.95585719	    -12.40435584	     -3.73807299	     42.65458804	     90.00000001	      0.00000000	      0.00000000	     25.37382426	    -16.22127298	      7.04172644	     51.34353117	     90.00000001	      0.00000000	      0.00000000
      2.71000000	     12.52743359	      1.39546574	      5.76800957	      0.89502343	      0.86663098	      0.17111343	     14.99030266	     -3.40807247	    -32.19230290	     23.77331431	     -2.22295623	      0.41492261	      7.91665704	     37.60727783	     -7.50052528	    -29.64445687	      0.91919518	    -11.46555315	     25.19286061	     -6.16583117	      0.43969837	     20.12267102	     32.97358617	     -7.50052528	    -34.07653079	      3.04894137	     -1.63535044	     -3.92127590	    -12.65465206	     -3.63620750	     42.54357596	     90.00000001	      0.00000000	      0.00000000	     24.70924589	    -16.05298785	      6.76868525	     51.67737675	     90.00000001	      0.00000000	      0.00000000
      2.72000000	     12.89932083	      0.94812171	      5.77584690	      0.91013717	      0.86764716	      0.17204796	     14.53430382	     -2.85983552	    -31.55373815	     25.60809795	     -2.67324885	      0.44694562	      8.45700581	     37.29260811	     -7.50052019	    -29.60539686	      0.07028863	    -11.46350936	     27.54881787	     -6.37782316	      0.48081758	     17.64183826	     32.58948675	     -7.50052019	    -34.20564529	      3.65378941	     -1.31042530	     -3.84903514	    -12.86979562	     -3.51848573	     42.42933060	     90.00000001	      0.00000000	      0.00000000	     24.05310822	    -15.89841197	      6.59305076	     51.83217893	     90.00000001	      0.00000000	      0.00000000
      2.73000000	     13.39345288	      0.36768693	      5.85412788	      0.92513068	      0.86913371	      0.17311549	     13.75919489	     -2.14622634	    -30.70772049	     27.21842283	     -2.79865567	      0.47505110	      9.45730199	     36.67753601	     -7.50051441	    -29.51362685	     -0.92806698	    -11.45672385	     30.00480021	     -6.74616651	      0.52368256	     14.73283178	     32.07477902	     -7.50051441	    -34.48578524	      4.37867765	     -0.99139808	     -3.71675741	    -13.14192064	     -3.29608158	     42.44449551	     90.00000001	      0.00000000	      0.00000000	     23.36280182	    -15.74655421	      6.41620097	     52.02064667	     90.00000001	      0.00000000	      0.00000000
      2.74000000	     13.98935461	     -0.17440606	      5.91822197	      0.93996563	      0.87107249	      0.17419326	     12.60797551	     -1.50955166	    -29.69573510	     28.43571842	     -2.48192486	      0.49629691	     10.36753231	     36.11695339	     -7.50050991	    -29.38940977	     -1.90347223	    -11.36029703	     32.50817790	     -7.04508319	      0.56737474	     12.39495724	     31.66427973	     -7.50050991	    -34.90571631	      5.05993139	     -0.63108810	     -3.57677508	    -13.39156450	     -3.06011042	     42.51518470	     90.00000001	      0.00000000	      0.00000000	     22.67900400	    -15.61823304	      6.29938195	     52.09320488	     90.00000001	      0.00000000	      0.00000000
      2.75000000	     14.63099958	     -1.09012051	      5.96494698	      0.95446466	      0.87348812	      0.17544638	     11.00186780	     -0.16342854	    -27.11624653	     28.68226957	     -1.36064741	      0.50060004	     11.32104236	     33.05828087	     -7.50048230	    -29.11877560	     -3.23305654	    -11.61720625	     35.05549298	     -7.50365138	      0.61183377	     10.11094957	     31.22702346	     -7.50048230	    -35.40386559	      6.09617618	     -0.13219766	     -3.39226561	    -13.96947476	     -2.03806426	     42.86338959	     90.00000001	      0.00000000	      0.00000000	     21.89388644	    -15.44093176	      6.08569109	     52.19825213	     90.00000001	      0.00000000	      0.00000000
      2.76000000	     15.19092241	     -1.76915883	      6.12485514	      0.96860956	      0.87584738	      0.17654819	      9.40487614	      0.77256609	    -26.01313855	     28.82855678	     -0.69014195	      0.50315323	     12.25243814	     32.08179298	     -7.50046559	    -28.49687177	     -4.41994825	    -11.82143734	     37.80448527	     -7.99548140	      0.65981274	      8.81873164	     30.91788862	     -7.50046559	    -35.84545339	      6.90962696	      0.24814600	     -3.20001308	    -14.26423008	     -1.81091894	     43.13901219	     90.00000001	      0.00000000	      0.00000000	     21.19681803	    -15.29577115	      6.08118202	     52.14175020	     90.00000001	      0.00000000	      0.00000000
      2.77000000	     15.52487096	     -2.27978626	      6.33855955	      0.98183676	      0.87809764	      0.17750959	      7.93767330	      1.43402133	    -25.25404620	     28.69759899	      0.09411845	      0.50086759	     13.10485630	     31.54130353	     -7.50045512	    -27.28902766	     -5.36224941	    -12.02198592	     40.74643844	     -8.75976868	      0.71115951	      8.25308018	     30.55820507	     -7.50045512	    -36.16096724	      7.54145669	      0.50109258	     -2.87865060	    -14.50536973	     -1.62755911	     43.50892096	     90.00000001	      0.00000000	      0.00000000	     20.62389978	    -15.19913497	      6.06402536	     51.97004120	     90.00000001	      0.00000000	      0.00000000
      2.78000000	     15.69966739	     -2.84432140	      6.60964954	      0.99455973	      0.88020813	      0.17842279	      6.53646045	      2.25857310	    -24.75913615	     28.13139724	      0.64188534	      0.49098550	     13.83092092	     31.14802048	     -7.50044456	    -25.63665341	     -6.46556261	    -12.65327228	     43.78396396	     -9.68523664	      0.76417433	      8.44243431	     30.33912955	     -7.50044456	    -36.34222531	      8.22504776	      0.74108252	     -2.52479681	    -14.77525421	     -1.40018272	     43.92586536	     90.00000001	      0.00000000	      0.00000000	     20.06423233	    -15.05172448	      6.08176364	     51.71932295	     90.00000001	      0.00000000	      0.00000000
      2.79000000	     15.75557948	     -3.44569717	      6.82497114	      1.00685796	      0.88217371	      0.17965174	      5.26160450	      3.26408304	    -24.67757015	     27.32379357	      0.78566663	      0.47689016	     14.25520003	     31.03156383	     -7.50043023	    -23.66792760	     -7.66020459	    -13.66755090	     46.74567162	    -10.73409590	      0.81586588	      9.35214428	     30.45156180	     -7.50043023	    -36.45179287	      8.86784222	      1.07278705	     -2.13897785	    -15.04918463	     -1.13200826	     44.35933347	     90.00000001	      0.00000000	      0.00000000	     19.54805533	    -14.91609461	      6.10033534	     51.38658286	     90.00000001	      0.00000000	      0.00000000
      2.80000000	     15.80229439	     -3.76890526	      7.14675152	      1.01891085	      0.88423470	      0.18043897	      3.90024967	      3.89222977	    -25.08883455	     26.42629530	      0.86533465	      0.46122586	     14.72212564	     31.62917802	     -7.50041168	    -21.60093738	     -8.44991771	    -14.52800394	     49.31831515	    -12.01892249	      0.86076698	     10.47955016	     30.27364628	     -7.50041168	    -36.54204063	      9.29697738	      1.19386728	     -1.76529223	    -15.24938903	     -0.98020066	     44.84971574	     90.00000001	      0.00000000	      0.00000000	     19.05421091	    -14.78777091	      6.16313378	     51.00379572	     90.00000001	      0.00000000	      0.00000000
